<?xml version="1.0" standalone="no"?>
<!DOCTYPE svg PUBLIC "-//W3C//DTD SVG 20010904//EN"
 "http://www.w3.org/TR/2001/REC-SVG-20010904/DTD/svg10.dtd">
<svg version="1.0" xmlns="http://www.w3.org/2000/svg"
 width="535.000000pt" height="133.000000pt" viewBox="0 0 535.000000 133.000000"
 preserveAspectRatio="xMidYMid meet">

<g transform="translate(0.000000,133.000000) scale(0.100000,-0.100000)"
fill="#000000" stroke="none">
<path d="M3716 891 c-3 -5 -46 -12 -96 -16 l-90 -7 0 -29 0 -29 85 0 85 0 0
-225 0 -225 34 0 c30 0 34 4 40 31 3 17 6 119 6 225 l0 194 85 0 85 0 0 29 0
29 -90 7 c-50 4 -93 11 -96 16 -3 5 -14 9 -24 9 -10 0 -21 -4 -24 -9z"/>
<path d="M1065 877 c-55 -22 -72 -36 -89 -71 -32 -68 -13 -152 42 -180 16 -8
70 -24 122 -36 102 -24 140 -50 140 -95 0 -85 -168 -117 -232 -45 -16 16 -28
41 -28 55 0 23 -4 25 -41 25 l-41 0 7 -37 c17 -93 74 -136 184 -141 144 -7
221 46 221 150 0 59 -21 103 -58 122 -15 7 -63 21 -107 31 -44 9 -95 23 -112
31 -29 12 -33 17 -33 53 0 55 34 81 106 81 59 0 107 -30 118 -75 5 -21 12 -25
42 -25 l36 0 -6 38 c-9 50 -34 83 -82 107 -47 23 -146 30 -189 12z"/>
<path d="M1565 874 c-90 -33 -146 -127 -147 -248 -2 -178 86 -276 246 -276
149 1 237 89 253 253 12 134 -54 249 -160 275 -61 16 -143 14 -192 -4z m202
-82 c72 -51 92 -189 43 -286 -31 -63 -62 -85 -125 -92 -113 -12 -188 70 -187
204 1 99 21 142 87 184 41 26 138 21 182 -10z"/>
<path d="M2539 878 c-16 -12 -31 -49 -139 -343 -71 -193 -68 -177 -24 -173 37
3 39 5 65 73 l26 70 101 3 100 3 24 -73 25 -73 41 -3 41 -3 -38 113 c-30 88
-140 393 -146 405 -6 11 -63 12 -76 1z m65 -202 c15 -46 26 -89 26 -95 0 -13
-116 -15 -124 -2 -8 12 54 192 64 186 5 -3 20 -43 34 -89z"/>
<path d="M1997 874 c-4 -4 -7 -121 -7 -261 l0 -253 165 0 165 0 0 35 0 35
-125 0 -125 0 -2 223 -3 222 -30 3 c-17 2 -34 0 -38 -4z"/>
<path d="M2870 621 l0 -261 35 0 35 0 0 94 c0 52 3 101 6 110 5 13 23 16 94
16 49 0 100 -4 114 -10 29 -11 46 -59 46 -132 0 -70 6 -78 56 -78 47 0 51 5
29 34 -10 13 -15 44 -15 92 0 56 -4 77 -20 97 -25 31 -25 29 5 73 30 43 33
100 9 150 -27 56 -55 64 -234 70 l-160 5 0 -260z m305 164 c31 -30 31 -54 3
-99 -27 -41 -52 -49 -153 -44 l-70 3 -5 73 c-3 40 -3 77 -2 82 2 6 47 10 103
10 93 0 102 -2 124 -25z"/>
<path d="M3390 620 l0 -260 35 0 35 0 0 260 0 260 -35 0 -35 0 0 -260z"/>
<path d="M3981 871 c-11 -7 5 -39 76 -151 l91 -141 7 -110 7 -109 34 0 34 0 0
103 0 104 94 149 93 149 -39 9 c-32 7 -42 6 -49 -5 -4 -8 -27 -45 -51 -83 -42
-67 -44 -69 -86 -70 l-43 -2 -50 83 c-43 71 -54 83 -77 83 -15 0 -33 -4 -41
-9z"/>
</g>
</svg>
